<?xml version="1.0" encoding="utf-8"?>
<!-- Generator: Adobe Illustrator 23.0.1, SVG Export Plug-In . SVG Version: 6.00 Build 0)  -->
<svg version="1.1" id="Layer_1" xmlns="http://www.w3.org/2000/svg" xmlns:xlink="http://www.w3.org/1999/xlink" x="0px" y="0px"
	 viewBox="0 0 850.39 708.66" style="enable-background:new 0 0 850.39 708.66;" xml:space="preserve">
<style type="text/css">
	.st0{fill:#F6BD3A;}
	.st1{fill:#EB8C23;}
	.st2{fill:#E35A2B;}
</style>
<g>
	<path class="st0" d="M381.71,306.91l67.84-39.24l66.88,39.24l-66.88,38.62l-67.84-37.69V306.91z"/>
	<path class="st0" d="M178.12,190.59L449.56,36.42l201.97,114.81l-67.14,116.43l-134.83-77.07L246.01,306.13L178.12,190.59z"/>
	<path class="st1" d="M381.71,461.08v-76.85l66.92-38.7l67.8-38.62v77.32l-66.88,38.41v76.9l-67.84,39.4L381.71,461.08z
		 M381.71,306.91l-67.82-38.42l-67.88,37.64v-77.01l203.54-115.63v154.17L381.71,306.91z M583.46,229.12v-38.53l68.07-39.36
		l0.68,77.08l-67.82,39.35L583.46,229.12z"/>
	<path class="st2" d="M313.9,498.12V268.48l66.89-37.63l0.93,76.05l67.84,37.92v77.81l-67.84-36.11v152.41L313.9,498.12z
		 M211.58,286.08l-33.46-20.03v-75.46l67.89,38.53v77.01L211.58,286.08z M449.56,190.59v-77.1l133.91,77.1l0.93,77.07L449.56,190.59
		z"/>
	<polygon class="st2" points="672.12,624.98 672.12,675.11 583.94,624.98 583.94,574.69 627.67,549.57 627.67,499 583.94,473.33 
		583.94,422.93 672.12,473.33 672.12,550.01 672.12,574.38 628.67,599.94 	"/>
</g>
</svg>
